{"accessors":[{"bufferView":2,"componentType":5126,"count":850,"max":[0.4478980004787445,1,1],"min":[-0.4478980004787445,-1,-1],"type":"VEC3","byteOffset":0},{"bufferView":2,"byteOffset":10200,"componentType":5126,"count":850,"max":[0.9941486716270447,1,1],"min":[-0.9941487908363342,-1,-1],"type":"VEC3"},{"bufferView":3,"componentType":5126,"count":850,"max":[0.9998700022697449,0.49865999817848206,1,1],"min":[-0.9998779892921448,-1,-1,1],"type":"VEC4","byteOffset":0},{"bufferView":1,"componentType":5126,"count":850,"max":[0.995639979839325,0.7223089933395386],"min":[0.005962450057268143,0.0030539201106876135],"type":"VEC2","byteOffset":0},{"bufferView":0,"componentType":5125,"count":4320,"max":[849],"min":[0],"type":"SCALAR","byteOffset":0},{"bufferView":2,"byteOffset":20400,"componentType":5126,"count":1553,"max":[0.4197779893875122,0.7151150107383728,0.7151150107383728],"min":[-0.4197779893875122,-0.7151150107383728,-0.7151150107383728],"type":"VEC3"},{"bufferView":2,"byteOffset":39036,"componentType":5126,"count":1553,"max":[0.9835483431816101,0.9997313618659973,0.9997313618659973],"min":[-0.9835483431816101,-0.9997313618659973,-0.9997313618659973],"type":"VEC3"},{"bufferView":3,"byteOffset":13600,"componentType":5126,"count":1553,"max":[0.9997310042381287,1,0.9835479855537415,1],"min":[-0.9905869960784912,-1,-1,-1],"type":"VEC4"},{"bufferView":1,"byteOffset":6800,"componentType":5126,"count":1553,"max":[0.6376370191574097,0.9983019828796387],"min":[0.008973119780421257,0.4065510034561157],"type":"VEC2"},{"bufferView":0,"byteOffset":17280,"componentType":5125,"count":4800,"max":[1552],"min":[0],"type":"SCALAR"},{"bufferView":2,"byteOffset":57672,"componentType":5126,"count":964,"max":[0.25511300563812256,0.4615890085697174,0.4615890085697174],"min":[0.07138039916753769,-0.4615890085697174,-0.4906879961490631],"type":"VEC3"},{"bufferView":2,"byteOffset":69240,"componentType":5126,"count":964,"max":[1,1,1],"min":[-1,-1,-1],"type":"VEC3"},{"bufferView":3,"byteOffset":38448,"componentType":5126,"count":964,"max":[1,0.9942759871482849,1,1],"min":[-0.9999179840087891,-0.9974169731140137,-1,-1],"type":"VEC4"},{"bufferView":1,"byteOffset":19224,"componentType":5126,"count":964,"max":[0.9979820251464844,0.9953479766845703],"min":[0.6471109986305237,0.3151859939098358],"type":"VEC2"},{"bufferView":0,"byteOffset":36480,"componentType":5125,"count":3594,"max":[963],"min":[0],"type":"SCALAR"},{"bufferView":2,"byteOffset":80808,"componentType":5126,"count":936,"max":[0.39043399691581726,0.6412690281867981,0.6353309750556946],"min":[0.2634960114955902,-0.5672039985656738,-0.6353319883346558],"type":"VEC3"},{"bufferView":2,"byteOffset":92040,"componentType":5126,"count":936,"max":[1,1,0.9999710917472839],"min":[-0.9280126690864563,-1,-0.9999710917472839],"type":"VEC3"},{"bufferView":3,"byteOffset":53872,"componentType":5126,"count":936,"max":[0.9999840259552002,0.9687060117721558,0.891090989112854,1],"min":[-0.9999989867210388,-0.9669899940490723,-0.9999920129776001,1],"type":"VEC4"},{"bufferView":1,"byteOffset":26936,"componentType":5126,"count":936,"max":[0.3208500146865845,0.3158920109272003],"min":[0.07997380197048187,0.08028630167245865],"type":"VEC2"},{"bufferView":0,"byteOffset":50856,"componentType":5125,"count":4860,"max":[935],"min":[0],"type":"SCALAR"},{"bufferView":2,"byteOffset":103272,"componentType":5126,"count":215,"max":[0.348812997341156,0.1813579946756363,0.1724810004234314],"min":[0.26425701379776,-0.15299899876117706,-0.17248199880123138],"type":"VEC3"},{"bufferView":2,"byteOffset":105852,"componentType":5126,"count":215,"max":[1,1,1],"min":[0,-1,-1],"type":"VEC3"},{"bufferView":3,"byteOffset":68848,"componentType":5126,"count":215,"max":[1,0.9961910247802734,0.976859986782074,1],"min":[-0.9402390122413635,-0.9216820001602173,-0.934253990650177,1],"type":"VEC4"},{"bufferView":1,"byteOffset":34424,"componentType":5126,"count":215,"max":[0.5499129891395569,0.6109430193901062],"min":[0.3569679856300354,0.45351600646972656],"type":"VEC2"},{"bufferView":0,"byteOffset":70296,"componentType":5125,"count":840,"max":[214],"min":[0],"type":"SCALAR"}],"asset":{"extras":{"author":"Benit Kibabu (https://sketchfab.com/benitkibabu)","license":"CC-BY-4.0 (http://creativecommons.org/licenses/by/4.0/)","source":"https://sketchfab.com/models/bec47d03e3c64d4f9b6350b12c4439d3","title":"Car Wheel - Basic Model"},"generator":"Sketchfab-3.19.1","version":"2.0"},"bufferViews":[{"buffer":0,"byteLength":73656,"byteOffset":0,"name":"floatBufferViews","target":34963},{"buffer":0,"byteLength":36144,"byteOffset":73656,"byteStride":8,"name":"floatBufferViews","target":34962},{"buffer":0,"byteLength":108432,"byteOffset":109800,"byteStride":12,"name":"floatBufferViews","target":34962},{"buffer":0,"byteLength":72288,"byteOffset":218232,"byteStride":16,"name":"floatBufferViews","target":34962},{"buffer":0,"byteOffset":290520,"byteLength":460},{"buffer":0,"byteOffset":290980,"byteLength":871},{"buffer":0,"byteOffset":291852,"byteLength":145851}],"buffers":[{"byteLength":437704,"uri":"data:application/octet-stream;base64,"}],"images":[{"bufferView":4,"mimeType":"image/png"},{"bufferView":5,"mimeType":"image/jpeg"},{"bufferView":6,"mimeType":"image/jpeg"}],"materials":[{"doubleSided":true,"emissiveFactor":[0,0,0],"name":"Tyre_Mat","normalTexture":{"index":1,"scale":1,"texCoord":0},"occlusionTexture":{"index":0,"strength":1,"texCoord":0},"pbrMetallicRoughness":{"baseColorFactor":[1,1,1,1],"baseColorTexture":{"index":2,"texCoord":0},"metallicFactor":1,"metallicRoughnessTexture":{"index":0,"texCoord":0},"roughnessFactor":1},"alphaMode":"OPAQUE"}],"meshes":[{"name":"defaultMaterial","primitives":[{"attributes":{"NORMAL":1,"POSITION":0,"TANGENT":2,"TEXCOORD_0":3},"indices":4,"material":0,"mode":4}]},{"name":"defaultMaterial","primitives":[{"attributes":{"NORMAL":6,"POSITION":5,"TANGENT":7,"TEXCOORD_0":8},"indices":9,"material":0,"mode":4}]},{"name":"defaultMaterial","primitives":[{"attributes":{"NORMAL":11,"POSITION":10,"TANGENT":12,"TEXCOORD_0":13},"indices":14,"material":0,"mode":4}]},{"name":"defaultMaterial","primitives":[{"attributes":{"NORMAL":16,"POSITION":15,"TANGENT":17,"TEXCOORD_0":18},"indices":19,"material":0,"mode":4}]},{"name":"defaultMaterial","primitives":[{"attributes":{"NORMAL":21,"POSITION":20,"TANGENT":22,"TEXCOORD_0":23},"indices":24,"material":0,"mode":4}]}],"nodes":[{"children":[1],"name":"RootNode (gltf orientation matrix)","rotation":[-0.7071067811865475,0,0,0.7071067811865476],"translation":[0,0,0],"scale":[1,1,1]},{"children":[2],"name":"RootNode (model correction matrix)"},{"children":[3,5,7,9,11],"matrix":[1,0,0,0,0,-4.371139006309477e-8,0.999999999999999,0,0,-0.999999999999999,-4.371139006309477e-8,0,0,0,0,1],"name":"Collada visual scene group"},{"children":[4],"name":"tyre_low"},{"mesh":0,"name":"defaultMaterial"},{"children":[6],"name":"p2_low"},{"mesh":1,"name":"defaultMaterial"},{"children":[8],"name":"brakedisk_low"},{"mesh":2,"name":"defaultMaterial"},{"children":[10],"name":"p_low"},{"mesh":3,"name":"defaultMaterial"},{"children":[12],"name":"wheelnut_low"},{"mesh":4,"name":"defaultMaterial"}],"samplers":[{"magFilter":9729,"minFilter":9987,"wrapS":10497,"wrapT":10497}],"scene":0,"scenes":[{"name":"OSG_Scene","nodes":[0]}],"textures":[{"sampler":0,"source":0},{"sampler":0,"source":1},{"sampler":0,"source":2}]}
